# xmcd
# Copyright (C) 1995-1998 Ti Kan
#
# Track frame offsets:
#       150
#       69519
#       138068
#       227179
#
# Disc length: 3935 seconds
#
# Revision: 0
# Processed by: cddbd v1.5.2PL0 Copyright (c) Steve Scherf et al.
# Submitted via: CD-Transfer v1.0
#
DISCID=2e0f5d04
DTITLE=Friday Night Life Mixed By Dj U.r.s. - 
DYEAR=1900
DGENRE=
TTITLE0=90house
TTITLE1=Reggea
TTITLE2=Dance Classic
TTITLE3=Hip Hop
EXTD=
EXTT0=
EXTT1=
EXTT2=
EXTT3=
PLAYORDER=
